<svg xmlns="http://www.w3.org/2000/svg" viewBox="0 0 32 32" shape-rendering="crispEdges">
  <rect width="32" height="32" fill="#f0ece7" />

  <!-- body -->
  <rect x="12" y="2" width="4" height="4" fill="#141414" />
  <rect x="16" y="2" width="4" height="4" fill="#141414" />
  <rect x="20" y="2" width="4" height="4" fill="#141414" />

  <rect x="8" y="6" width="4" height="4" fill="#141414" />
  <rect x="12" y="6" width="4" height="4" fill="#141414" />
  <rect x="16" y="6" width="4" height="4" fill="#141414" />
  <rect x="20" y="6" width="4" height="4" fill="#141414" />
  <rect x="24" y="6" width="4" height="4" fill="#141414" />

  <rect x="4" y="10" width="4" height="4" fill="#141414" />
  <rect x="8" y="10" width="4" height="4" fill="#141414" />
  <rect x="12" y="10" width="4" height="4" fill="#141414" />
  <rect x="16" y="10" width="4" height="4" fill="#141414" />
  <rect x="20" y="10" width="4" height="4" fill="#141414" />
  <rect x="24" y="10" width="4" height="4" fill="#141414" />
  <rect x="28" y="10" width="4" height="4" fill="#141414" />

  <rect x="4" y="14" width="4" height="4" fill="#141414" />
  <rect x="8" y="14" width="4" height="4" fill="#141414" />
  <rect x="12" y="14" width="4" height="4" fill="#141414" />
  <rect x="16" y="14" width="4" height="4" fill="#141414" />
  <rect x="20" y="14" width="4" height="4" fill="#141414" />
  <rect x="24" y="14" width="4" height="4" fill="#141414" />
  <rect x="28" y="14" width="4" height="4" fill="#141414" />

  <rect x="4" y="18" width="4" height="4" fill="#141414" />
  <rect x="8" y="18" width="4" height="4" fill="#141414" />
  <rect x="12" y="18" width="4" height="4" fill="#141414" />
  <rect x="16" y="18" width="4" height="4" fill="#141414" />
  <rect x="20" y="18" width="4" height="4" fill="#141414" />
  <rect x="24" y="18" width="4" height="4" fill="#141414" />
  <rect x="28" y="18" width="4" height="4" fill="#141414" />

  <rect x="8" y="22" width="4" height="4" fill="#141414" />
  <rect x="12" y="22" width="4" height="4" fill="#141414" />
  <rect x="16" y="22" width="4" height="4" fill="#141414" />
  <rect x="20" y="22" width="4" height="4" fill="#141414" />
  <rect x="24" y="22" width="4" height="4" fill="#141414" />

  <rect x="12" y="26" width="4" height="4" fill="#141414" />
  <rect x="16" y="26" width="4" height="4" fill="#141414" />
  <rect x="20" y="26" width="4" height="4" fill="#141414" />

  <!-- goofy eyes: small left, big right -->
  <rect x="8" y="14" width="4" height="4" fill="#f0ece7" />
  <rect x="24" y="10" width="4" height="4" fill="#f0ece7" />
  <rect x="24" y="14" width="4" height="4" fill="#f0ece7" />

  <!-- lopsided grin -->
  <rect x="12" y="18" width="4" height="4" fill="#f0ece7" />
  <rect x="16" y="18" width="4" height="4" fill="#f0ece7" />
</svg>
